<svg xmlns="http://www.w3.org/2000/svg" width="319" height="81" viewBox="0 0 319 81" fill="none">
  <g style="mix-blend-mode:overlay">
    <path d="M0 38.8421H319V41H0V38.8421Z" fill="white" fill-opacity="0.12"/>
    <path d="M0 82H319V84.1579H0V82Z" fill="white" fill-opacity="0.12"/>
    <path d="M0 34.5263H319V36.6842H0V34.5263Z" fill="white" fill-opacity="0.12"/>
    <path d="M0 77.6842H319V79.8421H0V77.6842Z" fill="white" fill-opacity="0.12"/>
    <path d="M0 30.2105H319V32.3684H0V30.2105Z" fill="white" fill-opacity="0.12"/>
    <path d="M0 73.3684H319V75.5263H0V73.3684Z" fill="white" fill-opacity="0.12"/>
    <path d="M0 25.8947H319V28.0526H0V25.8947Z" fill="white" fill-opacity="0.12"/>
    <path d="M0 69.0526H319V71.2105H0V69.0526Z" fill="white" fill-opacity="0.12"/>
    <path d="M0 21.5789H319V23.7368H0V21.5789Z" fill="white" fill-opacity="0.12"/>
    <path d="M0 64.7368H319V66.8947H0V64.7368Z" fill="white" fill-opacity="0.12"/>
    <path d="M0 17.2632H319V19.4211H0V17.2632Z" fill="white" fill-opacity="0.12"/>
    <path d="M0 60.4211H319V62.5789H0V60.4211Z" fill="white" fill-opacity="0.12"/>
    <path d="M0 12.9474H319V15.1053H0V12.9474Z" fill="white" fill-opacity="0.12"/>
    <path d="M0 56.1053H319V58.2632H0V56.1053Z" fill="white" fill-opacity="0.12"/>
    <path d="M0 8.63158H319V10.7895H0V8.63158Z" fill="white" fill-opacity="0.12"/>
    <path d="M0 51.7895H319V53.9474H0V51.7895Z" fill="white" fill-opacity="0.12"/>
    <path d="M0 4.31579H319V6.47368H0V4.31579Z" fill="white" fill-opacity="0.12"/>
    <path d="M0 47.4737H319V49.6316H0V47.4737Z" fill="white" fill-opacity="0.12"/>
    <path d="M0 0H319V2.15789H0V0Z" fill="white" fill-opacity="0.12"/>
    <path d="M0 43.1579H319V45.3158H0V43.1579Z" fill="white" fill-opacity="0.12"/>
  </g>
</svg> 